<svg width="47" height="47" viewBox="0 0 47 47" fill="none" xmlns="http://www.w3.org/2000/svg">
<g clip-path="url(#clip0_48_7)">
<path d="M26.1989 20.7551H20.8306C20.2302 20.7551 19.7437 21.2417 19.7437 21.842C19.7437 22.4424 20.2302 22.9289 20.8306 22.9289H26.1989C26.7993 22.9289 27.2859 22.4424 27.2859 21.842C27.2859 21.2418 26.7992 20.7551 26.1989 20.7551Z" fill="#C3932E"/>
<path d="M46.9025 25.8931C46.7767 25.6164 46.5408 25.405 46.252 25.3102L31.1075 20.3404C29.8573 18.157 27.5162 16.6846 24.6015 16.3906V14.3686C24.6015 13.7683 24.115 13.2817 23.5146 13.2817C22.9143 13.2817 22.4277 13.7683 22.4277 14.3686V16.3906C19.5181 16.684 17.18 18.1524 15.9284 20.3299C15.9212 20.332 15.914 20.3334 15.9068 20.3357L0.74797 25.3101C0.459136 25.4049 0.22323 25.6163 0.0974322 25.893C-0.0283656 26.1696 -0.0326188 26.4864 0.085807 26.7663L0.664704 28.1348C0.836057 28.5396 1.23216 28.7983 1.66532 28.7983C1.69859 28.7983 1.73214 28.7967 1.76579 28.7936L6.06843 28.3958C6.35462 29.8944 7.67422 31.031 9.25497 31.031C11.0389 31.031 12.4909 29.5836 12.4991 27.8012L15.544 27.5197C15.9635 28.6525 16.5858 29.7284 17.3838 30.6655C19.0598 32.6341 21.237 33.7183 23.5144 33.7183C25.7919 33.7183 27.9692 32.6341 29.6453 30.6656C30.4473 29.7234 31.0721 28.6413 31.4915 27.5019L34.5945 27.7935C34.6964 29.4915 36.1095 30.8418 37.8327 30.8418C39.3471 30.8418 40.6223 29.7988 40.9782 28.3934L45.2324 28.7932C45.2666 28.7964 45.3007 28.798 45.3346 28.798C45.7675 28.798 46.1638 28.5394 46.3351 28.1346L46.914 26.7662C47.0325 26.4864 47.0283 26.1697 46.9025 25.8931ZM9.25506 28.8572C8.80848 28.8572 8.42532 28.5822 8.26474 28.1929L10.3032 28.0044C10.2024 28.4906 9.77073 28.8572 9.25506 28.8572ZM4.53816 26.3543L15.0263 22.9126C14.9618 23.3239 14.9281 23.7481 14.9281 24.1841C14.9281 24.5835 14.9571 24.9852 15.0105 25.386L4.53816 26.3543ZM23.5145 31.5445C19.9031 31.5445 17.1018 27.5879 17.1018 24.1841C17.1018 20.8422 19.7387 18.5081 23.5145 18.5081C27.2905 18.5081 29.9277 20.8421 29.9277 24.1841C29.9277 27.5879 27.1263 31.5445 23.5145 31.5445ZM37.8328 28.6682C37.3867 28.6682 37.0036 28.3937 36.843 28.0049L38.7287 28.1821C38.5373 28.4744 38.2075 28.6682 37.8328 28.6682ZM32.0212 25.3685C32.073 24.9735 32.1015 24.5777 32.1015 24.1842C32.1015 23.7519 32.0684 23.331 32.0051 22.923L42.4418 26.3477L32.0212 25.3685Z" fill="#C3932E"/>
</g>
<defs>
<clipPath id="clip0_48_7">
<rect width="47" height="47" fill="white"/>
</clipPath>
</defs>
</svg>
