<svg width="45" height="45" viewBox="0 0 45 45" fill="none" xmlns="http://www.w3.org/2000/svg">
<path d="M22.4227 1.80003C16.1681 1.83791 10.7839 6.62885 9.99845 12.8321C9.81527 14.281 9.89468 15.6879 10.1742 17.0121C10.1753 17.0186 10.1765 17.025 10.1777 17.0315L14.1434 33.917C14.4296 35.1318 15.5243 36 16.7731 36H18.9V43.2H20.7V36H24.3V43.2H26.1V36H28.2815C29.5342 36 30.6319 35.1273 30.9129 33.9065L34.8838 16.6606C34.8871 16.6466 34.89 16.6325 34.8926 16.6184C35.0199 15.9063 35.1 15.166 35.1 14.4C35.1 7.42637 29.4053 1.75842 22.4227 1.80003ZM22.4332 3.60003C28.4394 3.56424 33.3 8.40289 33.3 14.4C33.3 15.0393 33.2321 15.6683 33.1207 16.2932C33.1203 16.2955 33.1211 16.298 33.1207 16.3002L32.3121 19.8088C30.3755 19.8571 28.8 21.4525 28.8 23.4C28.8 24.7849 29.594 25.9891 30.7512 26.5905L29.1586 33.5022C29.0634 33.9158 28.7063 34.2 28.2815 34.2H26.1H24.3H20.7H18.9H16.7731C16.3497 34.2 15.9931 33.9181 15.8959 33.5057L11.9356 16.6395C11.6949 15.4995 11.6274 14.3009 11.7844 13.0588C12.4551 7.76184 17.0958 3.63236 22.4332 3.60003ZM22.4859 5.38773C22.3621 5.38973 22.24 5.41725 22.1274 5.46859C19.7105 5.5725 17.5989 6.64587 16.04 8.29515C15.8835 8.35091 15.7455 8.44891 15.6413 8.57829C15.537 8.70766 15.4706 8.86337 15.4494 9.02816C14.5324 10.227 13.8054 11.5768 13.5861 13.1414V13.1467C13.5836 13.1654 13.5817 13.1865 13.5791 13.21V13.2118C13.4042 14.7966 14.6743 16.1983 16.2633 16.1983H28.6734C28.6945 16.1996 28.7156 16.2002 28.7367 16.2C30.2837 16.2 31.553 14.8713 31.4297 13.3137V13.3119C31.4239 13.2381 31.4166 13.1723 31.4086 13.1133V13.108C31.1851 11.5549 30.4592 10.2157 29.5471 9.02464C29.5253 8.86191 29.4594 8.70825 29.3565 8.58029C29.2536 8.45233 29.1177 8.35494 28.9635 8.29866C27.4039 6.64703 25.2901 5.5721 22.8709 5.46859C22.7501 5.41358 22.6187 5.38597 22.4859 5.38773ZM21.6141 7.36351C21.6503 7.5724 21.7592 7.76177 21.9214 7.89826C22.0837 8.03475 22.2889 8.10959 22.5009 8.10959C22.7129 8.10959 22.9181 8.03475 23.0803 7.89826C23.2426 7.76177 23.3514 7.5724 23.3877 7.36351C24.9185 7.5587 26.3057 8.15183 27.3779 9.14945L27.3744 9.15296C27.2145 9.30982 27.1188 9.52067 27.1061 9.74431C27.0934 9.96795 27.1645 10.1883 27.3055 10.3623C27.4466 10.5363 27.6474 10.6515 27.8689 10.6853C28.0903 10.7191 28.3164 10.6691 28.5029 10.5451C29.0492 11.3933 29.4761 12.3203 29.6262 13.3629C29.6288 13.3829 29.6318 13.4126 29.635 13.4526V13.4543C29.676 13.9681 29.2696 14.3959 28.7402 14.3983H28.7367H24.0451C23.8878 14.1323 23.6662 13.9102 23.4 13.7532V10.8C23.4017 10.6808 23.3797 10.5624 23.3352 10.4517C23.2907 10.341 23.2247 10.2403 23.141 10.1554C23.0572 10.0704 22.9574 10.003 22.8474 9.95695C22.7374 9.91092 22.6193 9.88721 22.5 9.88721C22.3807 9.88721 22.2627 9.91092 22.1526 9.95695C22.0426 10.003 21.9428 10.0704 21.8591 10.1554C21.7753 10.2403 21.7093 10.341 21.6648 10.4517C21.6204 10.5624 21.5983 10.6808 21.6 10.8V13.7532C21.3338 13.9102 21.1122 14.1323 20.9549 14.3983H16.2633C15.7199 14.3983 15.3088 13.9452 15.3668 13.4104V13.4086C15.3675 13.4023 15.3696 13.3968 15.3703 13.391C15.518 12.3372 15.949 11.4011 16.5006 10.5451C16.6876 10.6676 16.9134 10.7161 17.1341 10.6812C17.3549 10.6463 17.5547 10.5305 17.6949 10.3564C17.835 10.1823 17.9053 9.96234 17.8922 9.73924C17.8791 9.51615 17.7834 9.30591 17.6238 9.14945L17.6221 9.14769C18.6944 8.15049 20.0833 7.55837 21.6141 7.36351ZM18.8859 20.6877C18.6476 20.6915 18.4204 20.7896 18.2543 20.9606C18.0882 21.1317 17.9967 21.3616 18 21.6V27C17.9983 27.1193 18.0204 27.2377 18.0648 27.3484C18.1093 27.459 18.1753 27.5598 18.2591 27.6447C18.3428 27.7296 18.4426 27.7971 18.5526 27.8431C18.6627 27.8891 18.7807 27.9129 18.9 27.9129C19.0193 27.9129 19.1374 27.8891 19.2474 27.8431C19.3574 27.7971 19.4572 27.7296 19.541 27.6447C19.6247 27.5598 19.6907 27.459 19.7352 27.3484C19.7797 27.2377 19.8017 27.1193 19.8 27V21.6C19.8017 21.4796 19.7791 21.3601 19.7338 21.2486C19.6884 21.137 19.6211 21.0357 19.5358 20.9506C19.4506 20.8656 19.3492 20.7985 19.2375 20.7533C19.1259 20.7081 19.0064 20.6858 18.8859 20.6877ZM31.8815 21.6844L31.1818 24.7201C30.8266 24.393 30.6 23.928 30.6 23.4C30.6 22.5774 31.1369 21.9048 31.8815 21.6844Z" fill="#C3932E"/>
</svg>
