<svg width="45" height="45" viewBox="0 0 45 45" fill="none" xmlns="http://www.w3.org/2000/svg">
<path d="M23.125 20.375H29.125" stroke="#C3932E" stroke-width="2"/>
<path d="M10.125 16.375H34.125" stroke="#C3932E" stroke-width="2"/>
<path d="M29.125 23.375V13.375C29.125 11.718 27.782 10.375 26.125 10.375C24.468 10.375 23.125 11.718 23.125 13.375M23.125 13.375V23.375M23.125 13.375C23.125 11.718 21.782 10.375 20.125 10.375C18.468 10.375 17.125 11.718 17.125 13.375" stroke="#C3932E" stroke-width="2"/>
<mask id="mask0_29_34" style="mask-type:alpha" maskUnits="userSpaceOnUse" x="2" y="18" width="41" height="21">
<path d="M42.018 18.2505V38.3975H2V18.2505H42.018Z" fill="black"/>
</mask>
<g mask="url(#mask0_29_34)">
<path d="M10.136 34.8521C9.41197 34.8521 8.68797 34.6021 8.13597 34.1021C7.58397 33.6021 6.85997 33.3521 6.13597 33.3521C5.41198 33.3521 4.68797 33.6021 4.13597 34.1021C3.58397 34.6021 2.85998 34.8521 2.13597 34.8521C1.41198 34.8521 0.687971 34.6021 0.135971 34.1021C-0.416029 33.6021 -1.14002 33.3521 -1.86403 33.3521C-2.58802 33.3521 -3.31203 33.6021 -3.86403 34.1021C-4.41603 34.6021 -5.14002 34.8521 -5.86403 34.8521C-6.58802 34.8521 -7.31203 34.6021 -7.86403 34.1021C-8.41603 33.6021 -9.14002 33.3521 -9.86403 33.3521C-10.588 33.3521 -11.312 33.6021 -11.864 34.1021C-12.416 34.6021 -13.14 34.8521 -13.864 34.8521M58.124 34.8661C57.4 34.8661 56.676 34.6161 56.124 34.1161C55.572 33.6161 54.848 33.3661 54.124 33.3661C53.4 33.3661 52.676 33.6161 52.124 34.1161C51.572 34.6161 50.848 34.8661 50.124 34.8661C49.4 34.8661 48.676 34.6161 48.124 34.1161C47.572 33.6161 46.848 33.3661 46.124 33.3661C45.4 33.3661 44.676 33.6161 44.124 34.1161C43.572 34.6161 42.848 34.8661 42.124 34.8661C41.4 34.8661 40.676 34.6161 40.124 34.1161C39.572 33.6161 38.848 33.3661 38.124 33.3661C37.4 33.3661 36.676 33.6161 36.124 34.1161C35.572 34.6161 34.848 34.8661 34.124 34.8661M34.125 34.875C33.401 34.875 32.677 34.625 32.125 34.125C31.573 33.625 30.849 33.375 30.125 33.375C29.401 33.375 28.677 33.625 28.125 34.125C27.573 34.625 26.849 34.875 26.125 34.875C25.401 34.875 24.677 34.625 24.125 34.125C23.573 33.625 22.849 33.375 22.125 33.375C21.401 33.375 20.677 33.625 20.125 34.125C19.573 34.625 18.849 34.875 18.125 34.875C17.401 34.875 16.677 34.625 16.125 34.125C15.573 33.625 14.849 33.375 14.125 33.375C13.401 33.375 12.677 33.625 12.125 34.125C11.573 34.625 10.849 34.875 10.125 34.875" stroke="#C3932E" stroke-width="2"/>
<path d="M10.136 29.8521C9.41197 29.8521 8.68797 29.6021 8.13597 29.1021C7.58397 28.6021 6.85997 28.3521 6.13597 28.3521C5.41198 28.3521 4.68797 28.6021 4.13597 29.1021C3.58397 29.6021 2.85998 29.8521 2.13597 29.8521C1.41198 29.8521 0.687971 29.6021 0.135971 29.1021C-0.416029 28.6021 -1.14002 28.3521 -1.86403 28.3521C-2.58802 28.3521 -3.31203 28.6021 -3.86403 29.1021C-4.41603 29.6021 -5.14002 29.8521 -5.86403 29.8521C-6.58802 29.8521 -7.31203 29.6021 -7.86403 29.1021C-8.41603 28.6021 -9.14002 28.3521 -9.86403 28.3521C-10.588 28.3521 -11.312 28.6021 -11.864 29.1021C-12.416 29.6021 -13.14 29.8521 -13.864 29.8521M58.124 29.8661C57.4 29.8661 56.676 29.6161 56.124 29.1161C55.572 28.6161 54.848 28.3661 54.124 28.3661C53.4 28.3661 52.676 28.6161 52.124 29.1161C51.572 29.6161 50.848 29.8661 50.124 29.8661C49.4 29.8661 48.676 29.6161 48.124 29.1161C47.572 28.6161 46.848 28.3661 46.124 28.3661C45.4 28.3661 44.676 28.6161 44.124 29.1161C43.572 29.6161 42.848 29.8661 42.124 29.8661C41.4 29.8661 40.676 29.6161 40.124 29.1161C39.572 28.6161 38.848 28.3661 38.124 28.3661C37.4 28.3661 36.676 28.6161 36.124 29.1161C35.572 29.6161 34.848 29.8661 34.124 29.8661M34.125 29.875C33.401 29.875 32.677 29.625 32.125 29.125C31.573 28.625 30.849 28.375 30.125 28.375C29.401 28.375 28.677 28.625 28.125 29.125C27.573 29.625 26.849 29.875 26.125 29.875C25.401 29.875 24.677 29.625 24.125 29.125C23.573 28.625 22.849 28.375 22.125 28.375C21.401 28.375 20.677 28.625 20.125 29.125C19.573 29.625 18.849 29.875 18.125 29.875C17.401 29.875 16.677 29.625 16.125 29.125C15.573 28.625 14.849 28.375 14.125 28.375C13.401 28.375 12.677 28.625 12.125 29.125C11.573 29.625 10.849 29.875 10.125 29.875" stroke="#C3932E" stroke-width="2"/>
<path d="M10.136 24.8521C9.41197 24.8521 8.68797 24.6021 8.13597 24.1021C7.58397 23.6021 6.85997 23.3521 6.13597 23.3521C5.41198 23.3521 4.68797 23.6021 4.13597 24.1021C3.58397 24.6021 2.85998 24.8521 2.13597 24.8521C1.41198 24.8521 0.687971 24.6021 0.135971 24.1021C-0.416029 23.6021 -1.14002 23.3521 -1.86403 23.3521C-2.58802 23.3521 -3.31203 23.6021 -3.86403 24.1021C-4.41603 24.6021 -5.14002 24.8521 -5.86403 24.8521C-6.58802 24.8521 -7.31203 24.6021 -7.86403 24.1021C-8.41603 23.6021 -9.14002 23.3521 -9.86403 23.3521C-10.588 23.3521 -11.312 23.6021 -11.864 24.1021C-12.416 24.6021 -13.14 24.8521 -13.864 24.8521M58.124 24.8661C57.4 24.8661 56.676 24.6161 56.124 24.1161C55.572 23.6161 54.848 23.3661 54.124 23.3661C53.4 23.3661 52.676 23.6161 52.124 24.1161C51.572 24.6161 50.848 24.8661 50.124 24.8661C49.4 24.8661 48.676 24.6161 48.124 24.1161C47.572 23.6161 46.848 23.3661 46.124 23.3661C45.4 23.3661 44.676 23.6161 44.124 24.1161C43.572 24.6161 42.848 24.8661 42.124 24.8661C41.4 24.8661 40.676 24.6161 40.124 24.1161C39.572 23.6161 38.848 23.3661 38.124 23.3661C37.4 23.3661 36.676 23.6161 36.124 24.1161C35.572 24.6161 34.848 24.8661 34.124 24.8661M34.125 24.875C33.401 24.875 32.677 24.625 32.125 24.125C31.573 23.625 30.849 23.375 30.125 23.375C29.401 23.375 28.677 23.625 28.125 24.125C27.573 24.625 26.849 24.875 26.125 24.875C25.401 24.875 24.677 24.625 24.125 24.125C23.573 23.625 22.849 23.375 22.125 23.375C21.401 23.375 20.677 23.625 20.125 24.125C19.573 24.625 18.849 24.875 18.125 24.875C17.401 24.875 16.677 24.625 16.125 24.125C15.573 23.625 14.849 23.375 14.125 23.375C13.401 23.375 12.677 23.625 12.125 24.125C11.573 24.625 10.849 24.875 10.125 24.875" stroke="#C3932E" stroke-width="2"/>
</g>
</svg>
