<svg width="47" height="47" viewBox="0 0 47 47" fill="none" xmlns="http://www.w3.org/2000/svg">
<path d="M20.2071 26.4375H11.75V32.3125H14.3321L11.3946 35.25H10.2812C9.89171 35.25 9.51813 35.0953 9.24269 34.8198C8.96724 34.5444 8.8125 34.1708 8.8125 33.7812V24.9688C8.8125 24.5792 8.96724 24.2056 9.24269 23.9302C9.51813 23.6547 9.89171 23.5 10.2812 23.5H23.1446L20.2071 26.4375ZM26.7929 32.3125H32.3125V26.7929L35.6054 23.5H42.5938C42.9833 23.5 43.3569 23.6547 43.6323 23.9302C43.9078 24.2056 44.0625 24.5792 44.0625 24.9688V33.7812C44.0625 34.1708 43.9078 34.5444 43.6323 34.8198C43.3569 35.0953 42.9833 35.25 42.5938 35.25H23.8554L26.7929 32.3125ZM35.25 26.4375V32.3125H41.125V26.4375H35.25ZM33.887 16.9112L35.9638 18.988L13.113 41.8388L11.0362 39.762L33.887 16.9112ZM11.75 2.9375H14.6875V17.625H11.75V2.9375ZM5.875 8.8125H8.8125V17.625H5.875V8.8125ZM2.9375 23.5H5.875V35.25H2.9375V23.5Z" fill="#C3932E"/>
</svg>
